<?xml version="1.0" encoding="UTF-8"?>

<svg version="1.2" baseProfile="tiny" width="67.43mm" height="104.75mm" viewBox="-8409 -2089 6743 10475" preserveAspectRatio="xMidYMid" fill-rule="evenodd" stroke-width="28.222" stroke-linejoin="round" xmlns="http://www.w3.org/2000/svg" xmlns:xlink="http://www.w3.org/1999/xlink" xml:space="preserve">
 <g visibility="visible" id="Slide_1">
  <g>
   <path fill="rgb(59, 116, 209)" stroke="none" d="M -6584,7234 C -5996,7717 -5310,7540 -5616,7081 -5922,6623 -7221,6393 -7451,4660 -7910,5883 -7171,6751 -6584,7234 Z M -5217,-1738 C -5165,-1857 -5108,-2089 -5050,-2089 -4993,-2089 -4951,-1852 -4894,-1738 -4853,-1607 -4431,-513 -3851,455 -2949,1958 -1291,4004 -1743,5654 -2030,7279 -3356,8453 -5217,8383 -6983,8316 -8141,7117 -8378,5560 -8636,3926 -7205,1906 -6202,309 -5677,-527 -5285,-1584 -5217,-1738 Z"/>
   <rect fill="none" stroke="none" x="-8409" y="-2089" width="6744" height="10476"/>
  </g>
 </g>
</svg>