<?xml version="1.0" encoding="UTF-8"?>

<svg version="1.2" baseProfile="tiny" width="79.98mm" height="105.75mm" viewBox="24105 17851 7998 10575" preserveAspectRatio="xMidYMid" fill-rule="evenodd" stroke-width="28.222" stroke-linejoin="round" xmlns="http://www.w3.org/2000/svg" xmlns:xlink="http://www.w3.org/1999/xlink" xml:space="preserve">
 <g visibility="visible" id="Slide_1">
  <g id="DrawingGroup_1">
   <g>
    <path fill="rgb(209, 72, 59)" stroke="none" d="M 29542,24868 L 29535,24879 29529,24892 29518,24927 29495,25025 29459,25157 29432,25233 29397,25315 29352,25402 29296,25494 29226,25589 29141,25686 29040,25785 28920,25886 28780,25986 28618,26086 28900,25677 29095,25268 29163,25066 29213,24865 29262,24468 29252,24082 29192,23709 29092,23354 28960,23017 28806,22704 28638,22417 28301,21932 28020,21588 27925,21476 27872,21409 27734,22470 27648,22873 27550,23205 27441,23478 27324,23702 27198,23888 27065,24047 26478,24631 26322,24819 26164,25044 26006,25319 25847,25654 25803,25818 25754,26037 25712,26298 25689,26590 25689,26743 25697,26900 25715,27059 25746,27217 25790,27375 25848,27530 25923,27680 26016,27825 25573,27516 25195,27164 24879,26777 24621,26358 24420,25916 24270,25456 24170,24985 24116,24507 24105,24031 24134,23561 24200,23104 24299,22667 24428,22255 24585,21874 24765,21531 24967,21232 24970,21424 24985,21689 25023,22002 25054,22169 25094,22338 25146,22507 25210,22672 25288,22831 25381,22979 25490,23115 25617,23235 25763,23336 25844,23378 25930,23414 25836,22666 25841,21980 25932,21357 26097,20792 26322,20285 26595,19833 26904,19433 27235,19085 27576,18784 27914,18530 28237,18319 28531,18151 28985,17930 29119,17874 29157,17859 29173,17851 29075,18285 29041,18679 29060,19037 29125,19367 29226,19674 29354,19965 29655,20525 29956,21095 30084,21400 30185,21727 30250,22082 30269,22470 30234,22900 30136,23375 30464,22766 30732,22340 30849,22183 30955,22056 31054,21954 31147,21871 31320,21742 31489,21627 31576,21562 31667,21484 31763,21389 31867,21271 31881,21859 31937,22458 32073,23663 32103,24255 32099,24546 32076,24832 32033,25112 31966,25386 31872,25652 31748,25910 31472,26475 31260,26850 31129,27048 30979,27246 30807,27443 30613,27633 30393,27813 30146,27979 29870,28127 29563,28253 29224,28354 28849,28426 29069,28344 29267,28251 29443,28148 29597,28037 29733,27917 29849,27789 29948,27656 30030,27517 30096,27373 30148,27226 30186,27076 30210,26924 30226,26618 30202,26316 30146,26023 30068,25749 29973,25499 29871,25280 29769,25101 29674,24968 29633,24921 29596,24888 29580,24877 29566,24870 29553,24867 29542,24868 Z"/>
    <rect fill="none" stroke="none" x="24105" y="17851" width="8000" height="10577"/>
   </g>
   <g>
    <path fill="rgb(209, 72, 59)" stroke="none" d="M 29542,24868 L 29535,24879 29529,24892 29518,24927 29495,25025 29459,25157 29432,25233 29397,25315 29352,25402 29296,25494 29226,25589 29141,25686 29040,25785 28920,25886 28780,25986 28618,26086 28900,25677 29095,25268 29163,25066 29213,24865 29262,24468 29252,24082 29192,23709 29092,23354 28960,23017 28806,22704 28638,22417 28301,21932 28020,21588 27925,21476 27872,21409 27734,22470 27648,22873 27550,23205 27441,23478 27324,23702 27198,23888 27065,24047 26478,24631 26322,24819 26164,25044 26006,25319 25847,25654 25803,25818 25754,26037 25712,26298 25689,26590 25689,26743 25697,26900 25715,27059 25746,27217 25790,27375 25848,27530 25923,27680 26016,27825 25573,27516 25195,27164 24879,26777 24621,26358 24420,25916 24270,25456 24170,24985 24116,24507 24105,24031 24134,23561 24200,23104 24299,22667 24428,22255 24585,21874 24765,21531 24967,21232 24970,21424 24985,21689 25023,22002 25054,22169 25094,22338 25146,22507 25210,22672 25288,22831 25381,22979 25490,23115 25617,23235 25763,23336 25844,23378 25930,23414 25836,22666 25841,21980 25932,21357 26097,20792 26322,20285 26595,19833 26904,19433 27235,19085 27576,18784 27914,18530 28237,18319 28531,18151 28985,17930 29119,17874 29157,17859 29173,17851 29075,18285 29041,18679 29060,19037 29125,19367 29226,19674 29354,19965 29655,20525 29956,21095 30084,21400 30185,21727 30250,22082 30269,22470 30234,22900 30136,23375 30464,22766 30732,22340 30849,22183 30955,22056 31054,21954 31147,21871 31320,21742 31489,21627 31576,21562 31667,21484 31763,21389 31867,21271 31881,21859 31937,22458 32073,23663 32103,24255 32099,24546 32076,24832 32033,25112 31966,25386 31872,25652 31748,25910 31472,26475 31260,26850 31129,27048 30979,27246 30807,27443 30613,27633 30393,27813 30146,27979 29870,28127 29563,28253 29224,28354 28849,28426 29069,28344 29267,28251 29443,28148 29597,28037 29733,27917 29849,27789 29948,27656 30030,27517 30096,27373 30148,27226 30186,27076 30210,26924 30226,26618 30202,26316 30146,26023 30068,25749 29973,25499 29871,25280 29769,25101 29674,24968 29633,24921 29596,24888 29580,24877 29566,24870 29553,24867 29542,24868 Z"/>
    <rect fill="none" stroke="none" x="24105" y="17851" width="8000" height="10577"/>
   </g>
  </g>
 </g>
</svg>