<?xml version="1.0" encoding="UTF-8"?>

<svg version="1.2" baseProfile="tiny" width="93.64mm" height="105.32mm" viewBox="10955 22339 9364 10532" preserveAspectRatio="xMidYMid" fill-rule="evenodd" stroke-width="28.222" stroke-linejoin="round" xmlns="http://www.w3.org/2000/svg" xmlns:xlink="http://www.w3.org/1999/xlink" xml:space="preserve">
 <g visibility="visible" id="Slide_1">
  <g>
   <path fill="rgb(59, 202, 209)" stroke="none" d="M 15420,25799 L 14450,24829 14452,24827 14452,23766 14910,23766 14910,24642 15420,25151 15420,23610 14704,22893 15027,22570 15420,22962 15420,22339 15879,22339 15879,22949 16259,22568 16583,22892 15879,23597 15879,25138 16382,24635 16382,23766 16840,23766 16840,24829 16835,24829 15879,25787 15879,27217 17093,26516 17448,25190 17451,25191 18370,24660 18599,25057 17840,25495 17654,26192 18989,25421 19252,24443 19693,24561 19550,25097 20090,24786 20319,25183 19791,25488 20311,25627 20192,26069 19230,25812 17895,26582 18582,26766 19335,26332 19564,26729 18644,27260 18641,27256 17333,26907 16096,27621 17308,28321 18634,27966 18634,27969 19553,28499 19324,28896 18565,28458 17869,28645 19204,29416 20183,29154 20301,29596 19765,29740 20305,30051 20076,30449 19548,30144 19687,30663 19245,30782 18986,29820 17652,29049 17836,29736 18588,30171 18359,30568 17439,30036 17441,30032 17090,28725 15852,28010 15852,29410 16822,30381 16821,30383 16821,31444 16362,31444 16362,30568 15852,30058 15852,31600 16568,32316 16245,32640 15852,32248 15852,32871 15394,32871 15394,32261 15013,32641 14690,32318 15394,31613 15394,30072 14891,30574 14891,31444 14432,31444 14432,30381 14437,30381 15394,29423 15394,27994 14181,28694 13826,30019 13823,30019 12904,30549 12675,30152 13434,29714 13620,29018 12285,29789 12023,30767 11581,30649 11724,30112 11184,30424 10955,30027 11483,29722 10963,29583 11082,29141 12044,29398 13379,28627 12692,28443 11939,28878 11710,28481 12631,27949 12633,27954 13941,28303 15179,27588 13966,26888 12640,27243 12640,27241 11721,26710 11950,26313 12709,26751 13405,26564 12070,25793 11091,26056 10973,25614 11509,25470 10969,25158 11198,24761 11726,25066 11587,24546 12029,24428 12288,25390 13623,26161 13438,25474 12686,25039 12915,24642 13835,25173 13833,25178 14184,26485 15420,27198 15420,25799 Z"/>
   <rect fill="none" stroke="none" x="10955" y="22339" width="9365" height="10533"/>
  </g>
 </g>
</svg>