<?xml version="1.0" encoding="UTF-8"?>

<svg version="1.2" baseProfile="tiny" width="106.28mm" height="105.3mm" viewBox="-12253 22571 10628 10530" preserveAspectRatio="xMidYMid" fill-rule="evenodd" stroke-width="28.222" stroke-linejoin="round" xmlns="http://www.w3.org/2000/svg" xmlns:xlink="http://www.w3.org/1999/xlink" xml:space="preserve">
 <g visibility="visible" id="Slide_1">
  <g id="DrawingGroup_1">
   <g>
    <path fill="rgb(115, 75, 33)" stroke="none" d="M -10401,26856 L -8827,26361 -7259,27734 -6319,26183 -4752,26930 -4281,26054 -3591,26167 -4760,25216 -5158,26183 -6343,24900 -7065,26305 -7553,25777 -7828,26500 -8665,25364 -10401,26856 Z M -1724,28764 L -1625,29487 -2534,31379 -7251,33101 -12253,30697 -11840,28773 -8071,23699 -7204,24104 -6140,22571 -1724,28764 Z"/>
    <rect fill="none" stroke="none" x="-12253" y="22571" width="10630" height="10532"/>
   </g>
   <g>
    <rect fill="none" stroke="none" x="-10402" y="24899" width="6813" height="2836"/>
   </g>
   <g>
    <rect fill="none" stroke="none" x="-12253" y="22571" width="10630" height="10532"/>
   </g>
  </g>
 </g>
</svg>