<?xml version="1.0" encoding="UTF-8"?>

<svg version="1.2" baseProfile="tiny" width="109.44mm" height="104.13mm" viewBox="21831 5733 10944 10413" preserveAspectRatio="xMidYMid" fill-rule="evenodd" stroke-width="28.222" stroke-linejoin="round" xmlns="http://www.w3.org/2000/svg" xmlns:xlink="http://www.w3.org/1999/xlink" xml:space="preserve">
 <g visibility="visible" id="Slide_1">
  <g id="DrawingGroup_1">
   <g>
    <path fill="rgb(59, 209, 182)" stroke="none" d="M 26890,16146 C 31606,14304 32241,12196 32241,11915 31121,12800 29175,13020 29175,13020 29175,13020 33184,12239 32741,8407 27730,10913 22394,8746 22394,8746 22394,8746 24118,12520 31061,11076 30457,11915 25844,11577 25844,11577 25844,11577 31386,12019 26890,16146 Z"/>
    <rect fill="none" stroke="none" x="22394" y="8407" width="10383" height="7740"/>
   </g>
   <g>
    <path fill="rgb(59, 209, 182)" stroke="none" d="M 29083,8460 C 30070,8460 30910,8420 31766,8333 32016,8306 32246,8279 32459,8249 32373,8314 32273,8377 32160,8441 31650,8729 31016,8936 30133,9102 29251,9268 28385,9344 27366,9344 26347,9344 25481,9268 24598,9102 23716,8936 23082,8729 22572,8441 22063,8153 21831,7870 21831,7538 21831,7206 22063,6924 22572,6636 23082,6348 23716,6141 24598,5974 25481,5809 26347,5733 27366,5733 28385,5733 29251,5809 30133,5974 31016,6141 31650,6348 32160,6636 32229,6674 32294,6714 32354,6754 32171,6729 31975,6707 31766,6686 30910,6598 30070,6559 29083,6559 28095,6559 27256,6598 26400,6686 25545,6773 24930,6883 24437,7033 23943,7185 23717,7333 23717,7509 23717,7684 23943,7833 24437,7984 24930,8136 25545,8244 26400,8333 27256,8420 28095,8460 29083,8460 Z"/>
    <rect fill="none" stroke="none" x="21831" y="5732" width="10629" height="3614"/>
   </g>
  </g>
 </g>
</svg>